<svg width="73" height="73" viewBox="0 0 73 73" fill="none" xmlns="http://www.w3.org/2000/svg">
<path d="M64.4453 5.70312H61.0234V0H55.3203V5.70312H17.6797V0H11.9766V5.70312H8.55469C3.83763 5.70312 0 9.54076 0 14.2578V64.4453C0 69.1624 3.83763 73 8.55469 73H64.4453C69.1624 73 73 69.1624 73 64.4453V14.2578C73 9.54076 69.1624 5.70312 64.4453 5.70312ZM67.2969 64.4453C67.2969 66.0177 66.0177 67.2969 64.4453 67.2969H8.55469C6.98234 67.2969 5.70312 66.0177 5.70312 64.4453V26.8047H67.2969V64.4453ZM67.2969 21.1016H5.70312V14.2578C5.70312 12.6855 6.98234 11.4062 8.55469 11.4062H11.9766V17.1094H17.6797V11.4062H55.3203V17.1094H61.0234V11.4062H64.4453C66.0177 11.4062 67.2969 12.6855 67.2969 14.2578V21.1016Z" fill="#B41416"/>
<path d="M16.5391 32.793H10.8359V38.4961H16.5391V32.793Z" fill="#B41416"/>
<path d="M27.9453 32.793H22.2422V38.4961H27.9453V32.793Z" fill="#B41416"/>
<path d="M39.3516 32.793H33.6484V38.4961H39.3516V32.793Z" fill="#B41416"/>
<path d="M50.7578 32.793H45.0547V38.4961H50.7578V32.793Z" fill="#B41416"/>
<path d="M62.1641 32.793H56.4609V38.4961H62.1641V32.793Z" fill="#B41416"/>
<path d="M16.5391 44.1992H10.8359V49.9023H16.5391V44.1992Z" fill="#B41416"/>
<path d="M27.9453 44.1992H22.2422V49.9023H27.9453V44.1992Z" fill="#B41416"/>
<path d="M39.3516 44.1992H33.6484V49.9023H39.3516V44.1992Z" fill="#B41416"/>
<path d="M50.7578 44.1992H45.0547V49.9023H50.7578V44.1992Z" fill="#B41416"/>
<path d="M16.5391 55.6055H10.8359V61.3086H16.5391V55.6055Z" fill="#B41416"/>
<path d="M27.9453 55.6055H22.2422V61.3086H27.9453V55.6055Z" fill="#B41416"/>
<path d="M39.3516 55.6055H33.6484V61.3086H39.3516V55.6055Z" fill="#B41416"/>
<path d="M50.7578 55.6055H45.0547V61.3086H50.7578V55.6055Z" fill="#B41416"/>
<path d="M62.1641 44.1992H56.4609V49.9023H62.1641V44.1992Z" fill="#B41416"/>
</svg>
