<svg width="73" height="73" viewBox="0 0 73 73" fill="none" xmlns="http://www.w3.org/2000/svg">
<path d="M65.6343 48.6337L70.6284 43.5884C73.7902 40.3951 73.7907 35.1984 70.629 32.0035C69.6588 31.024 68.4936 30.336 67.2488 29.9545C68.2669 28.5576 68.8178 26.8761 68.8178 25.109C68.8178 22.921 67.974 20.8637 66.4418 19.3165C64.9108 17.7694 62.874 16.9171 60.7075 16.9171C60.6167 16.9171 60.526 16.9188 60.4352 16.9216C60.5059 14.7348 59.7173 12.5238 58.0682 10.8574C56.4191 9.19216 54.2275 8.39441 52.066 8.46698C52.0688 8.37584 52.0704 8.28358 52.0704 8.19187C52.0704 6.0034 51.2267 3.94657 49.6951 2.39945C46.5338 -0.793815 41.3893 -0.794377 38.2264 2.39945L36.4999 4.14348L34.7739 2.40001C33.2423 0.852324 31.2056 0 29.0391 0C26.8731 0 24.8369 0.852324 23.3053 2.39888C21.6556 4.06528 20.8687 6.27682 20.9405 8.46529C20.8492 8.46192 20.7578 8.45854 20.6665 8.45854C18.5005 8.45854 16.4638 9.3103 14.9311 10.8574C13.282 12.5244 12.495 14.7359 12.5669 16.9238C12.475 16.9205 12.3836 16.9171 12.2917 16.9171C10.1258 16.9171 8.08902 17.7694 6.55853 19.316C5.02637 20.8631 4.1826 22.9205 4.1826 25.109C4.1826 26.8755 4.73286 28.5571 5.75152 29.9534C4.48836 30.3382 3.33047 31.0347 2.37086 32.0035C-0.783123 35.1906 -0.790363 40.3709 2.34969 43.5658C2.35749 43.5743 2.36529 43.5822 2.37309 43.5906L7.37445 48.6415C7.38114 48.6489 7.38838 48.6562 7.39562 48.6635C7.69581 48.9673 8.01661 49.2424 8.35301 49.4916L6.87376 50.9859C5.43517 52.439 4.70223 54.4188 4.81084 56.5606C4.91443 58.6168 5.7905 60.5758 7.27643 62.0768L15.7359 70.6225C17.3053 72.2073 19.366 73 21.4273 73C23.4886 73 25.5498 72.2073 27.1187 70.6225L31.0508 66.65C32.8447 67.0388 34.672 67.2363 36.501 67.2363C38.3284 67.2363 40.1562 67.0399 41.9496 66.6512L45.8805 70.6225C47.45 72.2073 49.5107 73 51.572 73C53.6327 72.9994 55.6945 72.2073 57.2634 70.6225L65.7234 62.0768C68.8612 58.9071 69.2177 54.1094 66.5176 51.3814L64.7159 49.5614L65.6048 48.6629C65.6148 48.6534 65.6242 48.6438 65.6343 48.6337ZM26.4003 5.52576C27.1054 4.81352 28.0427 4.4214 29.0396 4.4214C30.0366 4.4214 30.9739 4.81352 31.679 5.52576L38.3774 12.292C39.8327 13.7626 39.8327 16.1548 38.3774 17.6248C37.6723 18.3371 36.7349 18.7292 35.7386 18.7292H35.738C34.7411 18.7286 33.8043 18.3371 33.0992 17.6248C33.0981 17.6237 33.097 17.6226 33.0964 17.622L26.4019 10.8597C26.3964 10.8541 26.3913 10.8484 26.3852 10.8434C24.945 9.37106 24.95 6.99018 26.4003 5.52576ZM18.0166 19.3064C16.5713 17.8352 16.5746 15.4504 18.026 13.9843C18.7317 13.2721 19.6696 12.8799 20.6665 12.8799C21.6623 12.8799 22.5986 13.2715 23.3036 13.9832C23.3042 13.9832 23.3048 13.9837 23.3048 13.9843C23.3075 13.9866 23.3098 13.9888 23.312 13.9911L30.0026 20.7494C30.0065 20.7539 30.0115 20.7584 30.0159 20.7629L31.6784 22.4423C32.3835 23.1545 32.7723 24.1014 32.7723 25.109C32.7723 26.116 32.3841 27.0628 31.679 27.7745C30.9739 28.4867 30.0366 28.8789 29.0396 28.8789C28.0427 28.8789 27.1054 28.4867 26.4008 27.7745C26.3919 27.7655 26.383 27.7571 26.3741 27.7486L24.7328 26.0901C24.7305 26.0879 24.7283 26.0856 24.7261 26.0828L18.0266 19.3165L18.026 19.316C18.0227 19.3126 18.0193 19.3092 18.0166 19.3064ZM9.65403 22.4423C10.3586 21.7306 11.2953 21.3385 12.2923 21.3385C13.2892 21.3385 14.2266 21.7306 14.9316 22.4428L21.6378 29.217C23.0859 30.6876 23.0831 33.0741 21.6311 34.5419C20.926 35.2536 19.9881 35.6457 18.9912 35.6457C17.9943 35.6457 17.0569 35.2536 16.3524 34.5413C16.3435 34.5329 16.3351 34.5239 16.3262 34.5155L9.67464 27.7965C9.6674 27.7891 9.66016 27.7813 9.65347 27.7745C8.94838 27.0623 8.56019 26.116 8.56019 25.109C8.55963 24.1019 8.94838 23.1551 9.65403 22.4423ZM5.48864 40.4851C5.48028 40.4761 5.47193 40.4677 5.46357 40.4592C4.01106 38.9892 4.01218 36.5993 5.46636 35.1304C6.17145 34.4181 7.10879 34.026 8.10572 34.026C9.10266 34.026 10.0406 34.4181 10.7456 35.1309L15.7693 40.2049C17.2246 41.675 17.2246 44.0671 15.7698 45.5372C15.0648 46.2494 14.1274 46.6415 13.131 46.6415H13.1305C12.9472 46.6415 12.7662 46.628 12.588 46.6021C12.5747 46.5993 12.5613 46.5976 12.5479 46.5954C11.7793 46.4744 11.0698 46.1155 10.5067 45.5535C10.5011 45.5473 10.495 45.5417 10.4894 45.5355L5.48864 40.4851ZM30.9321 62.079C30.9132 62.0739 30.8948 62.0717 30.8764 62.0672C30.8324 62.0565 30.789 62.0464 30.745 62.0385C30.7127 62.0329 30.6804 62.0289 30.6475 62.0244C30.6113 62.0199 30.5751 62.0154 30.5384 62.0126C30.4999 62.0092 30.4615 62.0076 30.4231 62.007C30.3919 62.0059 30.3613 62.0053 30.3301 62.0059C30.2889 62.0064 30.2482 62.0087 30.2075 62.0121C30.178 62.0143 30.1485 62.0166 30.119 62.0199C30.0789 62.0244 30.0393 62.0306 29.9998 62.0374C29.9686 62.0424 29.938 62.0486 29.9068 62.0554C29.8706 62.0633 29.8349 62.0717 29.7993 62.0818C29.7653 62.0908 29.7313 62.1009 29.6974 62.1116C29.6656 62.1223 29.635 62.1336 29.6038 62.1448C29.5676 62.1589 29.5314 62.173 29.4963 62.1887C29.4679 62.2011 29.4395 62.2146 29.4117 62.2281C29.376 62.2455 29.3409 62.2635 29.3064 62.2832C29.278 62.299 29.2501 62.3159 29.2223 62.3333C29.1911 62.353 29.1594 62.3727 29.1287 62.3941C29.0975 62.416 29.0669 62.4391 29.0368 62.4627C29.0118 62.4818 28.9873 62.5009 28.9628 62.5212C28.9271 62.5516 28.8931 62.5831 28.8597 62.6157C28.8469 62.6281 28.833 62.6388 28.8202 62.6517L24.0243 67.4962C22.5924 68.9426 20.2633 68.9426 18.8314 67.4962L10.3719 58.951C9.65347 58.2253 9.23075 57.2964 9.1823 56.335C9.1383 55.459 9.41733 54.6697 9.96926 54.1127L12.9912 51.0596C13.0375 51.0601 13.0837 51.0629 13.1305 51.0629C13.1305 51.0629 13.1305 51.0629 13.131 51.0629C15.2964 51.0629 17.3326 50.2106 18.8648 48.6635C21.209 46.295 21.8133 42.826 20.6804 39.8882C22.202 39.5641 23.6005 38.8046 24.7266 37.6682C26.0126 36.3681 26.7756 34.736 27.0146 33.0426C27.6684 33.2119 28.3473 33.3003 29.0396 33.3003C29.0396 33.3003 29.0396 33.3003 29.0402 33.3003C31.2056 33.3003 33.2418 32.4485 34.7739 30.9014C36.3055 29.3543 37.1493 27.2969 37.1493 25.109C37.1493 24.4108 37.0624 23.7261 36.8959 23.0668C38.6224 22.8192 40.2175 22.0192 41.4723 20.7506C44.6341 17.5573 44.6341 12.3607 41.4729 9.16628L39.5948 7.26923L41.3214 5.52576C42.7772 4.05571 45.1454 4.05571 46.6001 5.5252C47.3052 6.23744 47.6934 7.18428 47.6934 8.19131C47.6934 9.19835 47.3052 10.1452 46.6001 10.8574C46.1729 11.2889 45.9591 11.8549 45.9591 12.4209C45.9591 12.9863 46.1724 13.5522 46.6001 13.9837C47.455 14.8473 48.8401 14.8473 49.6951 13.9837C51.1498 12.5143 53.5179 12.5137 54.9738 13.9837C56.4291 15.4543 56.4285 17.8465 54.9732 19.3165C54.546 19.748 54.3322 20.314 54.3322 20.8794C54.3322 21.4454 54.5455 22.0108 54.9732 22.4423C55.8281 23.3059 57.2133 23.3059 58.0682 22.4428C58.7733 21.7306 59.7112 21.3385 60.7081 21.3379C61.705 21.3379 62.6424 21.73 63.3469 22.4423C64.0525 23.1551 64.4407 24.1019 64.4407 25.109C64.4407 26.1025 64.0626 27.0375 63.3753 27.7458C63.3653 27.7559 63.3552 27.7655 63.3458 27.7756L60.2074 30.9464C59.426 31.7357 59.3497 32.9897 60.0297 33.8696L60.1422 34.0153C60.8206 34.8935 62.0403 35.1242 62.9871 34.5543C64.4547 33.671 66.3243 33.9079 67.534 35.1292C68.9893 36.5999 68.9893 38.992 67.534 40.462L62.5109 45.5355C62.5014 45.5456 62.4914 45.5557 62.482 45.5659L51.7001 56.457C46.2904 61.9215 38.3328 64.0756 30.9321 62.079ZM63.4232 54.5077C64.3828 55.4776 64.0119 57.5541 62.629 58.951L54.169 67.4962C52.7371 68.9426 50.4079 68.9426 48.976 67.4962L46.648 65.1446C49.6739 63.8399 52.4452 61.9569 54.795 59.5834L61.6209 52.6877L63.4232 54.5077Z" fill="#B41416"/>
</svg>
