<svg width="73" height="73" viewBox="0 0 73 73" fill="none" xmlns="http://www.w3.org/2000/svg">
<g clip-path="url(#clip0)">
<path d="M71.9607 19.1691C71.9606 19.1691 71.9606 19.1691 71.9604 19.1691L71.958 19.1667L67.2461 18.4944C66.5838 18.4001 66.1234 17.7867 66.2177 17.1245C66.263 16.8062 66.433 16.5191 66.6901 16.3262L70.4984 13.47C71.0336 13.0686 71.142 12.3094 70.7407 11.7742L66.38 5.96C65.9786 5.42476 65.2194 5.31635 64.6842 5.71774L60.8771 8.57396C60.3441 8.97838 59.5844 8.87421 59.1799 8.34124C58.9836 8.08248 58.8994 7.75558 58.9463 7.43414L59.6198 2.72221C59.7147 2.05994 59.2549 1.44627 58.5928 1.35118C58.5923 1.35118 58.5918 1.35103 58.5914 1.35103L51.4012 0.323856C50.739 0.228769 50.1251 0.688454 50.03 1.35073C50.03 1.35088 50.03 1.35088 50.03 1.35103L49.3565 6.06296C49.2622 6.72523 48.6488 7.18567 47.9865 7.09134C47.6683 7.04607 47.3812 6.87604 47.1883 6.61894L44.3333 2.81064C43.9319 2.2754 43.1727 2.16699 42.6375 2.56838L38.9975 5.29984C37.3508 5.12481 35.6901 5.12481 34.0434 5.29984C23.2589 6.53248 14.8018 15.133 13.7506 25.9366C13.7179 26.2794 13.7058 26.6198 13.6888 26.9602H13.3254C12.7507 26.9612 12.2557 27.3661 12.1408 27.9292L11.3038 31.9095L7.95092 29.5971C7.46974 29.2651 6.81988 29.3243 6.40652 29.7377L2.77265 33.3715C2.3599 33.7847 2.30085 34.4337 2.63214 34.9147L4.93359 38.2615L0.952078 39.0985C0.395187 39.2206 -0.00120852 39.7143 2.76845e-06 40.2844V45.1295C-0.000300054 45.7025 0.401092 46.1973 0.961768 46.3154L4.94328 47.1524L2.64183 50.4992C2.31054 50.9802 2.36959 51.6292 2.78234 52.0424L6.41621 55.6763C6.82957 56.0896 7.47943 56.1488 7.96061 55.8168L11.3074 53.5093L12.1444 57.4908C12.2593 58.0539 12.7543 58.4587 13.3291 58.4598H18.1742C18.7472 58.4601 19.242 58.0587 19.3601 57.498L20.1971 53.5165L23.5439 55.818C24.0249 56.1493 24.6739 56.0902 25.0871 55.6775L26.9682 53.7903V57.2425C26.9736 58.9657 27.8968 60.5553 29.3908 61.4141V68.1441C29.3908 70.82 31.5601 72.9892 34.236 72.9892H39.0811C41.757 72.9892 43.9263 70.82 43.9263 68.1441V61.4141C45.4203 60.5553 46.3434 58.9657 46.3489 57.2425V52.4482C46.3817 50.4309 47.4371 48.5685 49.1506 47.5037C50.1558 46.8515 51.1091 46.1225 52.002 45.3233L50.3861 43.5185C49.5874 44.2344 48.7341 44.8868 47.8339 45.4699C45.4287 46.9795 43.9564 49.6086 43.9263 52.4482V57.2425C43.9263 58.5805 42.8417 59.665 41.5037 59.665H31.8134C30.4753 59.665 29.3908 58.5805 29.3908 57.2425V52.3476C29.3628 49.5618 27.9136 46.9834 25.5486 45.5111C15.948 39.4786 13.0555 26.8056 19.088 17.205C22.8309 11.2483 29.3631 7.6228 36.3981 7.59766C36.3801 7.64081 36.3642 7.68488 36.3509 7.72969C36.3059 8.04766 36.3892 8.37062 36.5822 8.62726L39.4372 12.4344C39.7382 12.8239 39.7672 13.359 39.5099 13.7789C39.2622 14.2013 38.7833 14.4318 38.2986 14.3615L33.5867 13.688C32.9244 13.5931 32.3108 14.0529 32.2157 14.7151C32.2157 14.7155 32.2155 14.716 32.2155 14.7164L31.1871 21.9103C31.0922 22.5724 31.552 23.1862 32.2142 23.2813C32.2146 23.2813 32.2151 23.2815 32.2155 23.2815L36.9274 23.9549C37.5897 24.0493 38.0502 24.6626 37.9558 25.3249C37.9106 25.6432 37.7405 25.9303 37.4834 26.1232L33.6763 28.9782C33.1411 29.3796 33.0327 30.1387 33.4341 30.674L37.7947 36.4882C38.1961 37.0234 38.9553 37.1318 39.4905 36.7304L43.2988 33.8754C43.8345 33.4748 44.5937 33.5843 44.9943 34.1201C45.186 34.3764 45.2685 34.6983 45.2236 35.0152L44.5513 39.7272C44.4562 40.3893 44.9159 41.0033 45.5782 41.0984C45.5783 41.0984 45.5783 41.0984 45.5785 41.0984L52.7736 42.1267C52.8302 42.134 52.8873 42.1376 52.9444 42.1376C53.5474 42.1384 54.059 41.6954 54.1447 41.0984L54.817 36.3864C54.9113 35.7242 55.5247 35.2637 56.187 35.358C56.5052 35.4033 56.7923 35.5734 56.9852 35.8304L59.8414 39.6375C60.2428 40.1728 61.002 40.2812 61.5373 39.8798L67.3515 35.5191C67.8867 35.1178 67.9951 34.3586 67.5937 33.8233L64.7387 30.0162C64.4391 29.6261 64.4101 29.0919 64.666 28.6717C64.9084 28.2437 65.3917 28.0117 65.8773 28.0903L70.5892 28.7626C71.2514 28.8576 71.8653 28.3978 71.9604 27.7357C71.9604 27.7355 71.9604 27.7355 71.9604 27.7354L72.9876 20.5403C73.0827 19.878 72.623 19.2642 71.9607 19.1691ZM31.8134 62.0876H41.5037V64.5102H31.8134V62.0876ZM31.8134 66.9328H41.5037V68.1441C41.5037 69.4821 40.4191 70.5667 39.0811 70.5667H34.236C32.8979 70.5667 31.8134 69.4821 31.8134 68.1441V66.9328ZM22.1703 46.0441C22.8316 46.5849 23.5227 47.0885 24.2404 47.5521C25.3849 48.2754 26.2464 49.3697 26.6811 50.6518L24.0829 53.2452L21.5671 51.5106C20.4654 50.7514 18.9569 51.0291 18.1975 52.1308C18.0155 52.395 17.8878 52.6927 17.8217 53.0066L17.187 56.0312H14.3078L13.6731 53.0114C13.3975 51.7022 12.1128 50.8641 10.8035 51.1397C10.4896 51.2057 10.192 51.3335 9.92775 51.5155L7.41069 53.2452L5.20371 51.0431L6.93707 48.5284C7.697 47.4272 7.42022 45.9185 6.31901 45.1586C6.05464 44.9762 5.75667 44.8481 5.44234 44.7819L2.42259 44.146V41.2679L5.44234 40.632C6.75114 40.3545 7.58723 39.0685 7.30969 37.7596C7.24383 37.449 7.1177 37.1545 6.93828 36.8927L5.20371 34.3708L7.41069 32.1687L9.92896 33.9033C11.0311 34.6617 12.5396 34.3831 13.298 33.281C13.4797 33.0171 13.6072 32.7197 13.6731 32.4061L13.885 31.3983C14.0791 32.794 14.4006 34.1689 14.8456 35.5058C10.86 35.9809 8.01421 39.5973 8.48934 43.5829C8.96447 47.5685 12.5808 50.4143 16.5664 49.9391C18.9657 49.653 21.0659 48.1932 22.1703 46.0441ZM20.2891 44.3374C19.3846 46.8515 16.6133 48.1564 14.0991 47.252C11.5849 46.3475 10.2801 43.5762 11.1845 41.062C11.8764 39.1386 13.7026 37.8575 15.7466 37.8618C15.7624 37.8618 15.7769 37.8618 15.7927 37.8618C16.9066 40.2636 18.4278 42.4544 20.2891 44.3374ZM69.7268 26.1898L66.2141 25.6883C64.2272 25.4046 62.3867 26.7853 62.1029 28.7719C61.9667 29.726 62.215 30.6952 62.7934 31.4662L64.9216 34.3042L61.0455 37.2113L58.916 34.3745C57.712 32.7688 55.4343 32.4431 53.8287 33.6471C53.0578 34.2252 52.548 35.086 52.4114 36.04L51.9208 39.5576L47.1253 38.872L47.6268 35.3593C47.9113 33.3726 46.5313 31.5314 44.5447 31.2471C43.59 31.1103 42.6204 31.3587 41.8489 31.9374L39.0109 34.0656L36.1038 30.1895L38.9406 28.06C40.5463 26.856 40.872 24.5783 39.668 22.9727C39.0899 22.2018 38.2291 21.6919 37.2751 21.5554L33.7623 21.0539L34.4479 16.2584L37.9607 16.7599C39.9473 17.0444 41.7885 15.6644 42.0729 13.6777C42.2096 12.7231 41.9613 11.7535 41.3826 10.982L39.2471 8.14153L43.1232 5.23443L45.2527 8.07249C46.4567 9.67821 48.7344 10.0039 50.3399 8.79987C51.1109 8.22178 51.6207 7.36101 51.7573 6.40696L52.2588 2.89422L57.0543 3.5786L56.5528 7.09134C56.269 9.07816 57.6496 10.9187 59.6364 11.2025C60.5905 11.3387 61.5597 11.0904 62.3307 10.512L65.1687 8.38379L68.0758 12.2599L65.2378 14.3894C63.632 15.5934 63.3063 17.8711 64.5104 19.4766C65.0885 20.2476 65.9492 20.7574 66.9033 20.894L70.416 21.3955L69.7268 26.1898Z" fill="#B41416"/>
<path d="M52.0855 11.5331C46.7337 11.5331 42.3952 15.8717 42.3952 21.2235C42.3952 26.5753 46.7337 30.9138 52.0855 30.9138C57.4373 30.9138 61.7759 26.5753 61.7759 21.2235C61.7698 15.8741 57.4349 11.539 52.0855 11.5331ZM52.0855 28.4912C48.0716 28.4912 44.8178 25.2374 44.8178 21.2235C44.8178 17.2096 48.0716 13.9557 52.0855 13.9557C56.0995 13.9557 59.3533 17.2096 59.3533 21.2235C59.3486 25.2354 56.0975 28.4865 52.0855 28.4912Z" fill="#B41416"/>
<path d="M37.8699 53.6086H35.4473V57.2425H37.8699V53.6086Z" fill="#B41416"/>
<path d="M31.3603 41.7125C23.8829 38.7915 20.1892 30.3618 23.1104 22.8843C24.2423 19.9869 26.2738 17.5291 28.9062 15.872L27.6114 13.8225C19.6871 18.8147 17.3101 29.2856 22.3023 37.2098C24.2357 40.2788 27.1022 42.647 30.4809 43.9667C33.4716 45.1126 35.4465 47.9833 35.4472 51.186H37.8698C37.8736 46.984 35.2841 43.2155 31.3603 41.7125Z" fill="#B41416"/>
<path d="M68.1521 45.1296H59.6731V47.5522H68.1521V45.1296Z" fill="#B41416"/>
<path d="M59.2373 51.4659L57.6866 53.3271L64.9549 59.3826L66.5056 57.5213L59.2373 51.4659Z" fill="#B41416"/>
<path d="M54.8279 54.8199H52.4053V63.2989H54.8279V54.8199Z" fill="#B41416"/>
<path d="M10.9265 18.5166L1.23688 20.9388L1.82406 23.2878L11.5137 20.8656L10.9265 18.5166Z" fill="#B41416"/>
<path d="M4.65626 6.5954L3.24896 8.56567L11.7273 14.6215L13.1346 12.6512L4.65626 6.5954Z" fill="#B41416"/>
<path d="M15.9745 0.0100948L13.6275 0.610168L16.1049 10.2997L18.4519 9.69968L15.9745 0.0100948Z" fill="#B41416"/>
</g>
<defs>
<clipPath id="clip0">
<rect width="73" height="73" fill="white"/>
</clipPath>
</defs>
</svg>
